<?xml version="1.0" standalone="no"?>
<!DOCTYPE svg PUBLIC "-//W3C//DTD SVG 20010904//EN"
 "http://www.w3.org/TR/2001/REC-SVG-20010904/DTD/svg10.dtd">
<svg version="1.0" xmlns="http://www.w3.org/2000/svg"
 width="1850.000000pt" height="1400.000000pt" viewBox="0 0 1850.000000 1400.000000"
 preserveAspectRatio="xMidYMid meet">

<g transform="translate(0.000000,1400.000000) scale(0.100000,-0.100000)"
fill="#000000" stroke="none">
<path d="M16710 13250 c-88 -7 -159 -25 -318 -84 -57 -21 -250 -118 -337 -170
-207 -121 -378 -257 -585 -465 -174 -174 -286 -311 -402 -491 -30 -47 -71
-110 -90 -140 -20 -30 -66 -91 -103 -135 -70 -84 -101 -137 -129 -220 -9 -27
-54 -122 -101 -210 -96 -180 -104 -199 -246 -560 -92 -235 -183 -455 -237
-576 -11 -24 -36 -82 -57 -129 -120 -270 -283 -566 -415 -751 -191 -267 -462
-563 -582 -635 -35 -21 -89 -57 -120 -81 -499 -380 -1135 -427 -1973 -147
-388 129 -846 347 -1200 569 -224 141 -654 473 -1100 851 -44 37 -136 115
-205 173 -245 206 -318 271 -525 471 -259 249 -382 352 -601 508 -151 106
-582 397 -734 494 -30 19 -86 56 -125 80 -150 97 -489 296 -679 400 -741 405
-1332 619 -1818 656 -70 6 -115 14 -132 25 -38 25 -74 84 -180 292 -110 216
-141 255 -198 255 -33 0 -46 -7 -86 -48 -26 -26 -76 -96 -112 -155 -90 -151
-134 -210 -164 -226 -24 -13 -28 -12 -69 25 -65 59 -116 130 -159 224 -82 181
-91 195 -122 198 -23 3 -37 -6 -78 -50 -43 -47 -228 -315 -302 -438 -15 -25
-48 -78 -74 -119 -46 -73 -48 -75 -104 -87 -129 -30 -241 -114 -298 -224 -35
-70 -65 -170 -85 -284 -20 -116 -30 -136 -90 -166 -88 -46 -241 -260 -261
-367 -4 -23 -1 -55 10 -88 20 -65 75 -123 246 -262 69 -56 169 -147 222 -202
108 -111 174 -160 263 -193 95 -36 262 -32 474 11 196 40 247 38 359 -14 129
-60 225 -180 254 -318 15 -71 2 -160 -36 -243 l-26 -57 -93 6 c-50 3 -202 13
-337 22 -167 11 -339 15 -540 13 -329 -4 -295 2 -485 -89 -239 -115 -426 -258
-516 -395 -38 -58 -42 -73 -51 -157 -11 -101 2 -257 27 -340 54 -178 183 -303
365 -353 83 -22 232 -29 333 -14 103 14 93 2 137 174 50 196 100 303 155 328
56 25 312 -77 655 -262 236 -128 695 -272 1080 -339 338 -59 662 -46 875 34
93 35 128 58 215 140 153 146 245 204 342 213 75 6 133 -16 190 -71 24 -23
104 -116 178 -207 149 -182 217 -256 395 -431 130 -127 171 -161 315 -260 227
-158 799 -474 1052 -582 151 -65 563 -167 828 -206 386 -57 529 -75 735 -96
83 -8 179 -18 215 -21 36 -4 162 -8 280 -8 188 -1 225 -4 295 -23 197 -55 359
-130 560 -262 185 -121 506 -406 540 -479 54 -115 530 -1062 630 -1252 125
-239 317 -598 355 -665 12 -22 43 -78 68 -125 79 -148 208 -319 407 -540 112
-123 407 -419 536 -535 36 -33 85 -78 110 -100 88 -81 377 -323 507 -425 134
-105 134 -105 128 -140 -41 -240 -29 -668 25 -925 112 -532 275 -812 554 -951
102 -50 183 -69 351 -79 160 -10 158 -13 175 260 5 88 13 257 17 375 l9 215
34 70 c33 68 34 74 34 185 -1 122 -15 177 -67 253 -162 239 -204 312 -252 444
-45 127 -56 194 -56 348 0 112 -4 156 -19 204 -50 161 -216 347 -443 496 -26
17 -67 58 -92 91 -25 32 -68 88 -96 124 -61 78 -123 199 -151 295 -38 132 -49
229 -59 510 -6 154 -17 404 -25 555 -8 151 -17 347 -20 435 -7 196 -25 318
-77 544 -132 575 -356 1101 -590 1384 -26 32 -48 63 -48 69 0 37 82 98 235
176 44 22 113 68 153 102 154 131 402 435 610 750 87 131 101 160 153 305 225
636 585 1325 932 1786 34 46 74 107 87 134 52 111 303 324 625 532 255 164
420 259 720 413 402 206 489 265 543 369 18 34 59 95 92 137 33 41 65 84 71
95 24 45 39 121 51 246 14 167 2 285 -39 370 -39 81 -126 166 -210 205 -76 36
-125 41 -283 28z"/>
</g>
</svg>
